<?xml version="1.0" encoding="UTF-8" standalone="no"?>
<!DOCTYPE svg PUBLIC "-//W3C//DTD SVG 1.1//EN" "http://www.w3.org/Graphics/SVG/1.1/DTD/svg11.dtd">
<svg xmlns="http://www.w3.org/2000/svg" version="1.1" viewBox="0 0 32 32">
<g stroke-width="2.0" fill="none" stroke-linecap="butt">
<path stroke="#808080" vector-effect="non-scaling-stroke" d="
  M 17.20 19.32
  Q 16.61 20.71 16.04 19.32
  Q 13.43 12.94 10.78 6.81
  Q 9.38 3.55 9.08 3.29
  Q 7.71 2.14 4.49 2.82
  C 3.80 2.96 3.42 3.69 3.68 4.33
  L 14.19 29.56
  Q 15.64 33.05 16.94 29.94
  L 27.81 3.96
  C 28.02 3.45 27.77 2.86 27.26 2.65
  Q 24.52 1.53 23.42 4.25
  Q 20.24 12.12 17.20 19.32"
/>
<path stroke="#808080" vector-effect="non-scaling-stroke" d="
  M 21.12 3.43
  Q 20.36 3.92 21.56 4.17
  C 21.86 4.24 22.15 4.11 22.22 3.87
  Q 22.31 3.56 22.03 3.37
  C 21.79 3.20 21.43 3.23 21.12 3.43"
/>
<path stroke="#808080" vector-effect="non-scaling-stroke" d="
  M 21.21 6.07
  Q 21.02 5.56 20.48 5.62
  C 20.18 5.65 19.97 5.95 20.04 6.25
  Q 20.18 6.91 20.85 6.74
  C 21.15 6.67 21.32 6.35 21.21 6.07"
/>
<path stroke="#808080" vector-effect="non-scaling-stroke" d="
  M 19.51 8.83
  Q 21.30 8.88 19.71 8.02
  C 19.44 7.87 19.12 7.90 18.94 8.08
  Q 18.66 8.37 18.92 8.63
  Q 19.11 8.81 19.51 8.83"
/>
<path stroke="#808080" vector-effect="non-scaling-stroke" d="
  M 18.96 10.57
  Q 18.20 9.97 18.07 10.45
  C 18.00 10.71 18.20 10.99 18.52 11.10
  Q 20.42 11.73 18.96 10.57"
/>
<path stroke="#808080" vector-effect="non-scaling-stroke" d="
  M 18.05 13.67
  Q 18.44 13.72 18.42 13.36
  C 18.41 13.12 18.23 12.87 17.94 12.69
  Q 16.52 11.81 17.47 13.24
  C 17.63 13.48 17.84 13.64 18.05 13.67"
/>
<path stroke="#808080" vector-effect="non-scaling-stroke" d="
  M 16.72 15.09
  Q 16.04 14.67 16.02 15.24
  C 16.01 15.49 16.21 15.72 16.49 15.78
  Q 18.49 16.18 16.72 15.09"
/>
<path stroke="#808080" vector-effect="non-scaling-stroke" d="
  M 16.07 21.70
  Q 12.65 13.93 9.45 6.07
  Q 8.75 4.35 8.01 3.82
  Q 6.77 2.93 5.01 3.62
  C 4.76 3.72 4.64 4.02 4.75 4.28
  L 14.97 28.89
  Q 15.66 30.56 16.35 28.88
  L 26.50 4.28
  C 26.61 4.01 26.47 3.72 26.21 3.68
  Q 24.98 3.50 24.25 5.25
  Q 20.79 13.50 17.18 21.70
  Q 16.63 22.97 16.07 21.70"
/>
<path stroke="#808080" vector-effect="non-scaling-stroke" d="
  M 8.49 8.81
  Q 8.84 11.49 10.44 13.61
  Q 10.80 14.09 10.76 13.50
  Q 10.68 12.41 9.81 10.44
  Q 8.91 8.37 8.03 6.28
  Q 7.92 6.03 7.76 5.90
  Q 7.47 5.67 7.27 5.82
  C 7.10 5.95 7.08 6.27 7.20 6.60
  Q 7.49 7.38 8.07 7.98
  C 8.30 8.22 8.45 8.51 8.49 8.81"
/>
</g>
<path fill="#ffffff" d="
  M 0.00 0.00
  Q 16.00 0.00 32.00 0.00
  Q 32.00 16.00 32.00 32.00
  Q 16.00 32.00 0.00 32.00
  Q 0.00 16.00 0.00 0.00
  Z
  M 17.20 19.32
  Q 16.61 20.71 16.04 19.32
  Q 13.43 12.94 10.78 6.81
  Q 9.38 3.55 9.08 3.29
  Q 7.71 2.14 4.49 2.82
  C 3.80 2.96 3.42 3.69 3.68 4.33
  L 14.19 29.56
  Q 15.64 33.05 16.94 29.94
  L 27.81 3.96
  C 28.02 3.45 27.77 2.86 27.26 2.65
  Q 24.52 1.53 23.42 4.25
  Q 20.24 12.12 17.20 19.32
  Z
  M 21.12 3.43
  Q 20.36 3.92 21.56 4.17
  C 21.86 4.24 22.15 4.11 22.22 3.87
  Q 22.31 3.56 22.03 3.37
  C 21.79 3.20 21.43 3.23 21.12 3.43
  Z
  M 21.21 6.07
  Q 21.02 5.56 20.48 5.62
  C 20.18 5.65 19.97 5.95 20.04 6.25
  Q 20.18 6.91 20.85 6.74
  C 21.15 6.67 21.32 6.35 21.21 6.07
  Z
  M 19.51 8.83
  Q 21.30 8.88 19.71 8.02
  C 19.44 7.87 19.12 7.90 18.94 8.08
  Q 18.66 8.37 18.92 8.63
  Q 19.11 8.81 19.51 8.83
  Z
  M 18.96 10.57
  Q 18.20 9.97 18.07 10.45
  C 18.00 10.71 18.20 10.99 18.52 11.10
  Q 20.42 11.73 18.96 10.57
  Z
  M 18.05 13.67
  Q 18.44 13.72 18.42 13.36
  C 18.41 13.12 18.23 12.87 17.94 12.69
  Q 16.52 11.81 17.47 13.24
  C 17.63 13.48 17.84 13.64 18.05 13.67
  Z
  M 16.72 15.09
  Q 16.04 14.67 16.02 15.24
  C 16.01 15.49 16.21 15.72 16.49 15.78
  Q 18.49 16.18 16.72 15.09
  Z"
/>
<path fill="#010101" d="
  M 17.20 19.32
  Q 20.24 12.12 23.42 4.25
  Q 24.52 1.53 27.26 2.65
  C 27.77 2.86 28.02 3.45 27.81 3.96
  L 16.94 29.94
  Q 15.64 33.05 14.19 29.56
  L 3.68 4.33
  C 3.42 3.69 3.80 2.96 4.49 2.82
  Q 7.71 2.14 9.08 3.29
  Q 9.38 3.55 10.78 6.81
  Q 13.43 12.94 16.04 19.32
  Q 16.61 20.71 17.20 19.32
  Z
  M 16.07 21.70
  Q 12.65 13.93 9.45 6.07
  Q 8.75 4.35 8.01 3.82
  Q 6.77 2.93 5.01 3.62
  C 4.76 3.72 4.64 4.02 4.75 4.28
  L 14.97 28.89
  Q 15.66 30.56 16.35 28.88
  L 26.50 4.28
  C 26.61 4.01 26.47 3.72 26.21 3.68
  Q 24.98 3.50 24.25 5.25
  Q 20.79 13.50 17.18 21.70
  Q 16.63 22.97 16.07 21.70
  Z"
/>
<path fill="#010101" d="
  M 22.03 3.37
  Q 22.31 3.56 22.22 3.87
  C 22.15 4.11 21.86 4.24 21.56 4.17
  Q 20.36 3.92 21.12 3.43
  C 21.43 3.23 21.79 3.20 22.03 3.37
  Z"
/>
<path fill="#ffffff" d="
  M 16.07 21.70
  Q 16.63 22.97 17.18 21.70
  Q 20.79 13.50 24.25 5.25
  Q 24.98 3.50 26.21 3.68
  C 26.47 3.72 26.61 4.01 26.50 4.28
  L 16.35 28.88
  Q 15.66 30.56 14.97 28.89
  L 4.75 4.28
  C 4.64 4.02 4.76 3.72 5.01 3.62
  Q 6.77 2.93 8.01 3.82
  Q 8.75 4.35 9.45 6.07
  Q 12.65 13.93 16.07 21.70
  Z
  M 8.49 8.81
  Q 8.84 11.49 10.44 13.61
  Q 10.80 14.09 10.76 13.50
  Q 10.68 12.41 9.81 10.44
  Q 8.91 8.37 8.03 6.28
  Q 7.92 6.03 7.76 5.90
  Q 7.47 5.67 7.27 5.82
  C 7.10 5.95 7.08 6.27 7.20 6.60
  Q 7.49 7.38 8.07 7.98
  C 8.30 8.22 8.45 8.51 8.49 8.81
  Z"
/>
<path fill="#010101" d="
  M 20.85 6.74
  Q 20.18 6.91 20.04 6.25
  C 19.97 5.95 20.18 5.65 20.48 5.62
  Q 21.02 5.56 21.21 6.07
  C 21.32 6.35 21.15 6.67 20.85 6.74
  Z"
/>
<path fill="#010101" d="
  M 8.07 7.98
  Q 7.49 7.38 7.20 6.60
  C 7.08 6.27 7.10 5.95 7.27 5.82
  Q 7.47 5.67 7.76 5.90
  Q 7.92 6.03 8.03 6.28
  Q 8.91 8.37 9.81 10.44
  Q 10.68 12.41 10.76 13.50
  Q 10.80 14.09 10.44 13.61
  Q 8.84 11.49 8.49 8.81
  C 8.45 8.51 8.30 8.22 8.07 7.98
  Z"
/>
<path fill="#010101" d="
  M 18.92 8.63
  Q 18.66 8.37 18.94 8.08
  C 19.12 7.90 19.44 7.87 19.71 8.02
  Q 21.30 8.88 19.51 8.83
  Q 19.11 8.81 18.92 8.63
  Z"
/>
<path fill="#010101" d="
  M 18.96 10.57
  Q 20.42 11.73 18.52 11.10
  C 18.20 10.99 18.00 10.71 18.07 10.45
  Q 18.20 9.97 18.96 10.57
  Z"
/>
<path fill="#010101" d="
  M 17.47 13.24
  Q 16.52 11.81 17.94 12.69
  C 18.23 12.87 18.41 13.12 18.42 13.36
  Q 18.44 13.72 18.05 13.67
  C 17.84 13.64 17.63 13.48 17.47 13.24
  Z"
/>
<path fill="#010101" d="
  M 16.72 15.09
  Q 18.49 16.18 16.49 15.78
  C 16.21 15.72 16.01 15.49 16.02 15.24
  Q 16.04 14.67 16.72 15.09
  Z"
/>
</svg>
