<?xml version="1.0" encoding="UTF-8" standalone="no"?>
<svg xmlns="http://www.w3.org/2000/svg" version="1.2" baseProfile="tiny" viewBox="0 0 193 54">
<g stroke-width="2.0" fill="none" stroke-linecap="butt">
<path stroke="#868686" vector-effect="non-scaling-stroke" d="
  M 187.50 5.32
  C 187.50 5.14 187.36 5.00 187.18 5.00
  L 7.82 5.00
  C 7.64 5.00 7.50 5.14 7.50 5.32
  L 7.50 49.68
  C 7.50 49.86 7.64 50.00 7.82 50.00
  L 187.18 50.00
  C 187.36 50.00 187.50 49.86 187.50 49.68
  L 187.50 5.32"
/>
<path stroke="#868686" vector-effect="non-scaling-stroke" d="
  M 50.9641 6.9536
  C 50.96 6.79 50.83 6.65 50.6636 6.6541
  L 9.5237 6.7259
  C 9.36 6.73 9.22 6.86 9.2242 7.0265
  L 9.2959 48.1064
  C 9.30 48.27 9.43 48.41 9.5964 48.4059
  L 50.7363 48.3341
  C 50.90 48.33 51.04 48.20 51.0358 48.0335
  L 50.9641 6.9536"
/>
<path stroke="#868686" vector-effect="non-scaling-stroke" d="
  M 111.75 15.58
  C 111.75 15.12 111.37 14.74 110.91 14.74
  L 106.85 14.74
  C 106.39 14.74 106.01 15.12 106.01 15.58
  L 106.01 39.14
  C 106.01 39.60 106.39 39.98 106.85 39.98
  L 110.91 39.98
  C 111.37 39.98 111.75 39.60 111.75 39.14
  L 111.75 15.58"
/>
<path stroke="#868686" vector-effect="non-scaling-stroke" d="
  M 89.06 32.34
  L 101.71 32.18
  C 102.18 32.17 102.54 31.75 102.50 31.26
  Q 101.85 22.16 94.04 21.46
  Q 90.38 21.13 87.67 22.64
  Q 84.50 24.41 83.44 28.19
  Q 82.10 32.94 84.65 36.28
  Q 86.89 39.21 90.98 40.11
  Q 95.80 41.17 100.27 38.22
  C 100.54 38.04 100.67 37.74 100.61 37.44
  Q 100.25 35.76 98.71 34.96
  C 98.45 34.82 98.11 34.84 97.82 35.00
  Q 94.06 37.08 90.50 35.25
  Q 89.17 34.57 88.68 32.80
  C 88.61 32.57 88.80 32.35 89.06 32.34"
/>
<path stroke="#868686" vector-effect="non-scaling-stroke" d="
  M 164.32 32.54
  L 176.72 32.20
  C 177.41 32.18 177.94 31.57 177.84 30.89
  Q 176.89 24.20 172.13 22.18
  Q 167.68 20.29 163.08 22.61
  Q 159.17 24.58 158.40 29.13
  Q 157.73 33.08 159.67 36.08
  Q 161.80 39.36 166.22 40.16
  Q 171.20 41.05 175.74 38.25
  C 176.14 38.01 176.24 37.50 175.97 37.17
  L 174.07 34.90
  C 173.87 34.66 173.52 34.58 173.21 34.71
  Q 172.95 34.82 172.72 34.98
  Q 172.06 35.43 171.83 35.52
  Q 166.49 37.67 164.04 33.02
  C 163.92 32.81 164.08 32.55 164.32 32.54"
/>
<path stroke="#868686" vector-effect="non-scaling-stroke" d="
  M 135.6899 30.8542
  C 135.67 25.57 131.07 21.31 125.4066 21.3301
  C 119.75 21.35 115.17 25.65 115.1901 30.9258
  C 115.21 36.21 119.81 40.47 125.4734 40.4499
  C 131.13 40.43 135.71 36.13 135.6899 30.8542"
/>
<path stroke="#868686" vector-effect="non-scaling-stroke" d="
  M 155.62 35.44
  L 152.98 33.89
  C 152.76 33.76 152.41 33.85 152.14 34.11
  Q 148.11 38.02 144.77 34.40
  Q 143.64 33.17 143.40 31.71
  Q 143.13 30.04 143.82 28.57
  Q 144.77 26.56 147.05 25.98
  Q 149.98 25.24 152.41 27.64
  C 152.64 27.87 152.95 27.95 153.23 27.86
  Q 154.80 27.34 155.92 26.13
  C 156.13 25.91 156.17 25.58 156.02 25.31
  Q 154.10 21.91 150.00 21.46
  Q 143.76 20.78 140.48 24.55
  Q 137.50 27.97 138.44 33.05
  Q 139.91 41.08 150.26 40.10
  Q 153.81 39.76 155.81 37.11
  C 156.24 36.53 156.15 35.75 155.62 35.44"
/>
<path stroke="#868686" vector-effect="non-scaling-stroke" d="
  M 71.87 33.23
  L 67.14 22.52
  C 67.01 22.22 66.75 22.01 66.45 21.93
  Q 64.48 21.45 62.48 21.88
  C 62.21 21.94 62.06 22.22 62.16 22.47
  L 68.91 39.31
  C 69.08 39.73 69.51 40.00 69.99 40.00
  L 73.36 40.00
  C 74.28 40.00 75.11 39.44 75.46 38.59
  Q 78.54 31.10 81.64 23.71
  Q 81.67 23.64 82.02 22.94
  Q 82.89 21.15 80.25 21.75
  Q 77.07 22.47 76.50 23.75
  L 72.30 33.26
  Q 72.09 33.74 71.87 33.23"
/>
<path stroke="#0c0c0c" vector-effect="non-scaling-stroke" d="
  M 8.3375 33.7999
  C 8.71 33.80 9.03 32.14 9.0500 30.0859
  C 9.07 28.03 8.78 26.36 8.4025 26.3601
  C 8.03 26.36 7.71 28.02 7.6900 30.0741
  C 7.67 32.13 7.96 33.80 8.3375 33.7999"
/>
<path stroke="#ffffff" vector-effect="non-scaling-stroke" d="
  M 19.9209 13.7112
  C 19.92 13.48 19.72 13.30 19.4922 13.3001
  L 19.4123 13.3018
  C 19.18 13.31 19.00 13.50 19.0011 13.7305
  L 19.1591 21.2688
  C 19.16 21.50 19.36 21.68 19.5878 21.6799
  L 19.6677 21.6782
  C 19.90 21.67 20.08 21.48 20.0789 21.2495
  L 19.9209 13.7112"
/>
<path stroke="#ffffff" vector-effect="non-scaling-stroke" d="
  M 41.56 21.08
  Q 42.03 17.67 41.78 14.27
  Q 41.69 13.07 41.21 13.51
  Q 41.00 13.70 40.96 14.06
  Q 40.50 17.68 41.14 21.09
  Q 41.38 22.36 41.56 21.08"
/>
<path stroke="#868686" vector-effect="non-scaling-stroke" d="
  M 22.94 35.19
  Q 22.18 35.66 21.33 35.39
  Q 18.57 34.51 16.21 32.85
  Q 15.80 32.56 15.91 33.05
  Q 16.67 36.27 19.19 36.81
  Q 26.14 38.30 28.45 32.73
  Q 29.60 29.96 27.16 28.19
  Q 24.28 26.10 21.14 25.34
  Q 19.45 24.93 18.23 25.30
  Q 16.42 25.85 16.04 27.59
  Q 15.65 29.37 16.96 31.16
  Q 18.90 33.81 22.50 34.25
  Q 24.13 34.45 22.94 35.19"
/>
<path stroke="#868686" vector-effect="non-scaling-stroke" d="
  M 37.58 34.69
  Q 37.72 34.37 38.25 34.25
  Q 42.51 33.28 44.71 29.14
  C 44.87 28.84 44.92 28.50 44.84 28.20
  Q 44.33 26.11 42.59 25.41
  Q 41.34 24.91 39.04 25.47
  Q 36.52 26.08 35.56 26.56
  Q 30.68 29.03 32.22 32.89
  Q 33.34 35.68 36.53 36.76
  Q 41.63 38.49 44.75 33.27
  Q 44.96 32.91 45.00 32.55
  Q 45.12 31.26 43.79 32.79
  Q 41.45 35.49 38.05 35.24
  C 37.71 35.22 37.48 34.94 37.58 34.69"
/>
<path stroke="#868686" vector-effect="non-scaling-stroke" d="
  M 31.33 36.58
  Q 35.59 40.21 40.18 40.10
  Q 40.36 40.10 41.70 40.13
  Q 43.76 40.17 42.69 38.24
  C 42.56 37.99 42.25 37.88 41.97 37.97
  Q 35.19 40.18 30.56 33.40
  C 30.42 33.19 30.12 33.19 29.98 33.40
  Q 24.90 40.81 17.58 37.44
  C 17.37 37.34 17.12 37.47 17.07 37.70
  Q 16.54 40.12 18.29 40.09
  Q 19.58 40.07 19.72 40.08
  Q 25.04 40.52 28.96 36.66
  C 29.61 36.03 30.64 35.99 31.33 36.58"
/>
<path stroke="#868686" vector-effect="non-scaling-stroke" d="
  M 95.32 26.17
  Q 91.07 24.21 88.70 28.26
  Q 88.12 29.25 89.26 29.25
  L 96.29 29.25
  C 96.78 29.25 97.14 28.77 97.00 28.30
  Q 96.56 26.74 95.32 26.17"
/>
<path stroke="#868686" vector-effect="non-scaling-stroke" d="
  M 170.83 26.42
  Q 167.87 24.59 165.02 26.53
  Q 163.74 27.39 163.94 28.70
  C 163.99 28.99 164.24 29.21 164.55 29.21
  L 171.95 29.20
  C 172.22 29.20 172.43 28.96 172.39 28.69
  Q 172.14 27.23 170.83 26.42"
/>
<path stroke="#868686" vector-effect="non-scaling-stroke" d="
  M 125.4731 36.0299
  C 128.05 36.04 130.15 33.75 130.1599 30.9144
  C 130.17 28.08 128.10 25.76 125.5269 25.7501
  C 122.95 25.74 120.85 28.03 120.8401 30.8656
  C 120.83 33.70 122.90 36.02 125.4731 36.0299"
/>
</g>
<path fill="#ffffff" d="
  M 0.00 0.00
  Q 96.50 0.00 193.00 0.00
  Q 193.00 27.00 193.00 54.00
  Q 96.50 54.00 0.00 54.00
  Q 0.00 27.00 0.00 0.00
  Z
  M 187.50 5.32
  C 187.50 5.14 187.36 5.00 187.18 5.00
  L 7.82 5.00
  C 7.64 5.00 7.50 5.14 7.50 5.32
  L 7.50 49.68
  C 7.50 49.86 7.64 50.00 7.82 50.00
  L 187.18 50.00
  C 187.36 50.00 187.50 49.86 187.50 49.68
  L 187.50 5.32
  Z"
/>
<path fill="#0c0c0c" d="
  M 187.50 49.68
  C 187.50 49.86 187.36 50.00 187.18 50.00
  L 7.82 50.00
  C 7.64 50.00 7.50 49.86 7.50 49.68
  L 7.50 5.32
  C 7.50 5.14 7.64 5.00 7.82 5.00
  L 187.18 5.00
  C 187.36 5.00 187.50 5.14 187.50 5.32
  L 187.50 49.68
  Z
  M 50.9641 6.9536
  C 50.96 6.79 50.83 6.65 50.6636 6.6541
  L 9.5237 6.7259
  C 9.36 6.73 9.22 6.86 9.2242 7.0265
  L 9.2959 48.1064
  C 9.30 48.27 9.43 48.41 9.5964 48.4059
  L 50.7363 48.3341
  C 50.90 48.33 51.04 48.20 51.0358 48.0335
  L 50.9641 6.9536
  Z
  M 111.75 15.58
  C 111.75 15.12 111.37 14.74 110.91 14.74
  L 106.85 14.74
  C 106.39 14.74 106.01 15.12 106.01 15.58
  L 106.01 39.14
  C 106.01 39.60 106.39 39.98 106.85 39.98
  L 110.91 39.98
  C 111.37 39.98 111.75 39.60 111.75 39.14
  L 111.75 15.58
  Z
  M 89.06 32.34
  L 101.71 32.18
  C 102.18 32.17 102.54 31.75 102.50 31.26
  Q 101.85 22.16 94.04 21.46
  Q 90.38 21.13 87.67 22.64
  Q 84.50 24.41 83.44 28.19
  Q 82.10 32.94 84.65 36.28
  Q 86.89 39.21 90.98 40.11
  Q 95.80 41.17 100.27 38.22
  C 100.54 38.04 100.67 37.74 100.61 37.44
  Q 100.25 35.76 98.71 34.96
  C 98.45 34.82 98.11 34.84 97.82 35.00
  Q 94.06 37.08 90.50 35.25
  Q 89.17 34.57 88.68 32.80
  C 88.61 32.57 88.80 32.35 89.06 32.34
  Z
  M 164.32 32.54
  L 176.72 32.20
  C 177.41 32.18 177.94 31.57 177.84 30.89
  Q 176.89 24.20 172.13 22.18
  Q 167.68 20.29 163.08 22.61
  Q 159.17 24.58 158.40 29.13
  Q 157.73 33.08 159.67 36.08
  Q 161.80 39.36 166.22 40.16
  Q 171.20 41.05 175.74 38.25
  C 176.14 38.01 176.24 37.50 175.97 37.17
  L 174.07 34.90
  C 173.87 34.66 173.52 34.58 173.21 34.71
  Q 172.95 34.82 172.72 34.98
  Q 172.06 35.43 171.83 35.52
  Q 166.49 37.67 164.04 33.02
  C 163.92 32.81 164.08 32.55 164.32 32.54
  Z
  M 135.6899 30.8542
  C 135.67 25.57 131.07 21.31 125.4066 21.3301
  C 119.75 21.35 115.17 25.65 115.1901 30.9258
  C 115.21 36.21 119.81 40.47 125.4734 40.4499
  C 131.13 40.43 135.71 36.13 135.6899 30.8542
  Z
  M 155.62 35.44
  L 152.98 33.89
  C 152.76 33.76 152.41 33.85 152.14 34.11
  Q 148.11 38.02 144.77 34.40
  Q 143.64 33.17 143.40 31.71
  Q 143.13 30.04 143.82 28.57
  Q 144.77 26.56 147.05 25.98
  Q 149.98 25.24 152.41 27.64
  C 152.64 27.87 152.95 27.95 153.23 27.86
  Q 154.80 27.34 155.92 26.13
  C 156.13 25.91 156.17 25.58 156.02 25.31
  Q 154.10 21.91 150.00 21.46
  Q 143.76 20.78 140.48 24.55
  Q 137.50 27.97 138.44 33.05
  Q 139.91 41.08 150.26 40.10
  Q 153.81 39.76 155.81 37.11
  C 156.24 36.53 156.15 35.75 155.62 35.44
  Z
  M 71.87 33.23
  L 67.14 22.52
  C 67.01 22.22 66.75 22.01 66.45 21.93
  Q 64.48 21.45 62.48 21.88
  C 62.21 21.94 62.06 22.22 62.16 22.47
  L 68.91 39.31
  C 69.08 39.73 69.51 40.00 69.99 40.00
  L 73.36 40.00
  C 74.28 40.00 75.11 39.44 75.46 38.59
  Q 78.54 31.10 81.64 23.71
  Q 81.67 23.64 82.02 22.94
  Q 82.89 21.15 80.25 21.75
  Q 77.07 22.47 76.50 23.75
  L 72.30 33.26
  Q 72.09 33.74 71.87 33.23
  Z
  M 8.3375 33.7999
  C 8.71 33.80 9.03 32.14 9.0500 30.0859
  C 9.07 28.03 8.78 26.36 8.4025 26.3601
  C 8.03 26.36 7.71 28.02 7.6900 30.0741
  C 7.67 32.13 7.96 33.80 8.3375 33.7999
  Z"
/>
<path fill="#ffffff" d="
  M 51.0358 48.0335
  C 51.04 48.20 50.90 48.33 50.7363 48.3341
  L 9.5964 48.4059
  C 9.43 48.41 9.30 48.27 9.2959 48.1064
  L 9.2242 7.0265
  C 9.22 6.86 9.36 6.73 9.5237 6.7259
  L 50.6636 6.6541
  C 50.83 6.65 50.96 6.79 50.9641 6.9536
  L 51.0358 48.0335
  Z
  M 19.9209 13.7112
  C 19.92 13.48 19.72 13.30 19.4922 13.3001
  L 19.4123 13.3018
  C 19.18 13.31 19.00 13.50 19.0011 13.7305
  L 19.1591 21.2688
  C 19.16 21.50 19.36 21.68 19.5878 21.6799
  L 19.6677 21.6782
  C 19.90 21.67 20.08 21.48 20.0789 21.2495
  L 19.9209 13.7112
  Z
  M 41.56 21.08
  Q 42.03 17.67 41.78 14.27
  Q 41.69 13.07 41.21 13.51
  Q 41.00 13.70 40.96 14.06
  Q 40.50 17.68 41.14 21.09
  Q 41.38 22.36 41.56 21.08
  Z
  M 22.94 35.19
  Q 22.18 35.66 21.33 35.39
  Q 18.57 34.51 16.21 32.85
  Q 15.80 32.56 15.91 33.05
  Q 16.67 36.27 19.19 36.81
  Q 26.14 38.30 28.45 32.73
  Q 29.60 29.96 27.16 28.19
  Q 24.28 26.10 21.14 25.34
  Q 19.45 24.93 18.23 25.30
  Q 16.42 25.85 16.04 27.59
  Q 15.65 29.37 16.96 31.16
  Q 18.90 33.81 22.50 34.25
  Q 24.13 34.45 22.94 35.19
  Z
  M 37.58 34.69
  Q 37.72 34.37 38.25 34.25
  Q 42.51 33.28 44.71 29.14
  C 44.87 28.84 44.92 28.50 44.84 28.20
  Q 44.33 26.11 42.59 25.41
  Q 41.34 24.91 39.04 25.47
  Q 36.52 26.08 35.56 26.56
  Q 30.68 29.03 32.22 32.89
  Q 33.34 35.68 36.53 36.76
  Q 41.63 38.49 44.75 33.27
  Q 44.96 32.91 45.00 32.55
  Q 45.12 31.26 43.79 32.79
  Q 41.45 35.49 38.05 35.24
  C 37.71 35.22 37.48 34.94 37.58 34.69
  Z
  M 31.33 36.58
  Q 35.59 40.21 40.18 40.10
  Q 40.36 40.10 41.70 40.13
  Q 43.76 40.17 42.69 38.24
  C 42.56 37.99 42.25 37.88 41.97 37.97
  Q 35.19 40.18 30.56 33.40
  C 30.42 33.19 30.12 33.19 29.98 33.40
  Q 24.90 40.81 17.58 37.44
  C 17.37 37.34 17.12 37.47 17.07 37.70
  Q 16.54 40.12 18.29 40.09
  Q 19.58 40.07 19.72 40.08
  Q 25.04 40.52 28.96 36.66
  C 29.61 36.03 30.64 35.99 31.33 36.58
  Z"
/>
<rect fill="#ffffff" x="-0.46" y="-4.19" transform="translate(19.54,17.49) rotate(-1.2)" width="0.92" height="8.38" rx="0.42"/>
<path fill="#ffffff" d="
  M 41.56 21.08
  Q 41.38 22.36 41.14 21.09
  Q 40.50 17.68 40.96 14.06
  Q 41.00 13.70 41.21 13.51
  Q 41.69 13.07 41.78 14.27
  Q 42.03 17.67 41.56 21.08
  Z"
/>
<rect fill="#ffffff" x="106.01" y="14.74" width="5.74" height="25.24" rx="0.84"/>
<path fill="#ffffff" d="
  M 88.68 32.80
  Q 89.17 34.57 90.50 35.25
  Q 94.06 37.08 97.82 35.00
  C 98.11 34.84 98.45 34.82 98.71 34.96
  Q 100.25 35.76 100.61 37.44
  C 100.67 37.74 100.54 38.04 100.27 38.22
  Q 95.80 41.17 90.98 40.11
  Q 86.89 39.21 84.65 36.28
  Q 82.10 32.94 83.44 28.19
  Q 84.50 24.41 87.67 22.64
  Q 90.38 21.13 94.04 21.46
  Q 101.85 22.16 102.50 31.26
  C 102.54 31.75 102.18 32.17 101.71 32.18
  L 89.06 32.34
  C 88.80 32.35 88.61 32.57 88.68 32.80
  Z
  M 95.32 26.17
  Q 91.07 24.21 88.70 28.26
  Q 88.12 29.25 89.26 29.25
  L 96.29 29.25
  C 96.78 29.25 97.14 28.77 97.00 28.30
  Q 96.56 26.74 95.32 26.17
  Z"
/>
<path fill="#ffffff" d="
  M 164.04 33.02
  Q 166.49 37.67 171.83 35.52
  Q 172.06 35.43 172.72 34.98
  Q 172.95 34.82 173.21 34.71
  C 173.52 34.58 173.87 34.66 174.07 34.90
  L 175.97 37.17
  C 176.24 37.50 176.14 38.01 175.74 38.25
  Q 171.20 41.05 166.22 40.16
  Q 161.80 39.36 159.67 36.08
  Q 157.73 33.08 158.40 29.13
  Q 159.17 24.58 163.08 22.61
  Q 167.68 20.29 172.13 22.18
  Q 176.89 24.20 177.84 30.89
  C 177.94 31.57 177.41 32.18 176.72 32.20
  L 164.32 32.54
  C 164.08 32.55 163.92 32.81 164.04 33.02
  Z
  M 170.83 26.42
  Q 167.87 24.59 165.02 26.53
  Q 163.74 27.39 163.94 28.70
  C 163.99 28.99 164.24 29.21 164.55 29.21
  L 171.95 29.20
  C 172.22 29.20 172.43 28.96 172.39 28.69
  Q 172.14 27.23 170.83 26.42
  Z"
/>
<path fill="#ffffff" d="
  M 135.6899 30.8542
  C 135.71 36.13 131.13 40.43 125.4734 40.4499
  C 119.81 40.47 115.21 36.21 115.1901 30.9258
  C 115.17 25.65 119.75 21.35 125.4066 21.3301
  C 131.07 21.31 135.67 25.57 135.6899 30.8542
  Z
  M 125.4731 36.0299
  C 128.05 36.04 130.15 33.75 130.1599 30.9144
  C 130.17 28.08 128.10 25.76 125.5269 25.7501
  C 122.95 25.74 120.85 28.03 120.8401 30.8656
  C 120.83 33.70 122.90 36.02 125.4731 36.0299
  Z"
/>
<path fill="#ffffff" d="
  M 155.62 35.44
  C 156.15 35.75 156.24 36.53 155.81 37.11
  Q 153.81 39.76 150.26 40.10
  Q 139.91 41.08 138.44 33.05
  Q 137.50 27.97 140.48 24.55
  Q 143.76 20.78 150.00 21.46
  Q 154.10 21.91 156.02 25.31
  C 156.17 25.58 156.13 25.91 155.92 26.13
  Q 154.80 27.34 153.23 27.86
  C 152.95 27.95 152.64 27.87 152.41 27.64
  Q 149.98 25.24 147.05 25.98
  Q 144.77 26.56 143.82 28.57
  Q 143.13 30.04 143.40 31.71
  Q 143.64 33.17 144.77 34.40
  Q 148.11 38.02 152.14 34.11
  C 152.41 33.85 152.76 33.76 152.98 33.89
  L 155.62 35.44
  Z"
/>
<path fill="#ffffff" d="
  M 72.30 33.26
  L 76.50 23.75
  Q 77.07 22.47 80.25 21.75
  Q 82.89 21.15 82.02 22.94
  Q 81.67 23.64 81.64 23.71
  Q 78.54 31.10 75.46 38.59
  C 75.11 39.44 74.28 40.00 73.36 40.00
  L 69.99 40.00
  C 69.51 40.00 69.08 39.73 68.91 39.31
  L 62.16 22.47
  C 62.06 22.22 62.21 21.94 62.48 21.88
  Q 64.48 21.45 66.45 21.93
  C 66.75 22.01 67.01 22.22 67.14 22.52
  L 71.87 33.23
  Q 72.09 33.74 72.30 33.26
  Z"
/>
<path fill="#0c0c0c" d="
  M 22.94 35.19
  Q 24.13 34.45 22.50 34.25
  Q 18.90 33.81 16.96 31.16
  Q 15.65 29.37 16.04 27.59
  Q 16.42 25.85 18.23 25.30
  Q 19.45 24.93 21.14 25.34
  Q 24.28 26.10 27.16 28.19
  Q 29.60 29.96 28.45 32.73
  Q 26.14 38.30 19.19 36.81
  Q 16.67 36.27 15.91 33.05
  Q 15.80 32.56 16.21 32.85
  Q 18.57 34.51 21.33 35.39
  Q 22.18 35.66 22.94 35.19
  Z"
/>
<path fill="#0c0c0c" d="
  M 38.05 35.24
  Q 41.45 35.49 43.79 32.79
  Q 45.12 31.26 45.00 32.55
  Q 44.96 32.91 44.75 33.27
  Q 41.63 38.49 36.53 36.76
  Q 33.34 35.68 32.22 32.89
  Q 30.68 29.03 35.56 26.56
  Q 36.52 26.08 39.04 25.47
  Q 41.34 24.91 42.59 25.41
  Q 44.33 26.11 44.84 28.20
  C 44.92 28.50 44.87 28.84 44.71 29.14
  Q 42.51 33.28 38.25 34.25
  Q 37.72 34.37 37.58 34.69
  C 37.48 34.94 37.71 35.22 38.05 35.24
  Z"
/>
<path fill="#0c0c0c" d="
  M 95.32 26.17
  Q 96.56 26.74 97.00 28.30
  C 97.14 28.77 96.78 29.25 96.29 29.25
  L 89.26 29.25
  Q 88.12 29.25 88.70 28.26
  Q 91.07 24.21 95.32 26.17
  Z"
/>
<path fill="#0c0c0c" d="
  M 170.83 26.42
  Q 172.14 27.23 172.39 28.69
  C 172.43 28.96 172.22 29.20 171.95 29.20
  L 164.55 29.21
  C 164.24 29.21 163.99 28.99 163.94 28.70
  Q 163.74 27.39 165.02 26.53
  Q 167.87 24.59 170.83 26.42
  Z"
/>
<ellipse fill="#0c0c0c" cx="0.00" cy="0.00" transform="translate(125.50,30.89) rotate(90.3)" rx="5.14" ry="4.66"/>
<ellipse fill="#0c0c0c" cx="0.00" cy="0.00" transform="translate(8.37,30.08) rotate(90.5)" rx="3.72" ry="0.68"/>
<path fill="#0c0c0c" d="
  M 31.33 36.58
  C 30.64 35.99 29.61 36.03 28.96 36.66
  Q 25.04 40.52 19.72 40.08
  Q 19.58 40.07 18.29 40.09
  Q 16.54 40.12 17.07 37.70
  C 17.12 37.47 17.37 37.34 17.58 37.44
  Q 24.90 40.81 29.98 33.40
  C 30.12 33.19 30.42 33.19 30.56 33.40
  Q 35.19 40.18 41.97 37.97
  C 42.25 37.88 42.56 37.99 42.69 38.24
  Q 43.76 40.17 41.70 40.13
  Q 40.36 40.10 40.18 40.10
  Q 35.59 40.21 31.33 36.58
  Z"
/>
</svg>
