<?xml version="1.0" standalone="no"?>
<!DOCTYPE svg PUBLIC "-//W3C//DTD SVG 20010904//EN"
 "http://www.w3.org/TR/2001/REC-SVG-20010904/DTD/svg10.dtd">
<svg version="1.0" xmlns="http://www.w3.org/2000/svg"
 width="236.000000pt" height="236.000000pt" viewBox="0 0 236.000000 236.000000"
 preserveAspectRatio="xMidYMid meet">

<g transform="translate(0.000000,236.000000) scale(0.100000,-0.100000)"
fill="#000000" stroke="none">
<path d="M1160 2327 c0 -2 -20 -80 -45 -173 -25 -93 -43 -175 -40 -181 6 -16
191 -18 200 -3 11 17 -86 360 -101 360 -8 0 -14 -2 -14 -3z"/>
<path d="M1825 1914 c-82 -48 -154 -90 -160 -95 -10 -10 121 -149 141 -149 11
0 185 295 185 315 1 21 -22 12 -166 -71z"/>
<path d="M315 1968 c-3 -8 18 -56 46 -108 28 -52 62 -116 76 -142 14 -27 30
-48 37 -48 12 0 146 130 146 142 0 3 -42 29 -93 56 -52 28 -119 64 -150 82
-44 25 -58 29 -62 18z"/>
<path d="M1015 1785 c-218 -60 -404 -255 -450 -471 -45 -214 14 -412 170 -570
65 -66 96 -89 165 -122 107 -50 160 -63 269 -63 114 0 179 14 281 63 145 69
262 204 321 368 19 55 23 85 23 190 0 105 -4 135 -23 190 -37 104 -79 170
-160 251 -60 60 -94 85 -161 117 -47 22 -109 45 -138 51 -72 15 -236 12 -297
-4z"/>
<path d="M235 1255 c-202 -54 -236 -66 -233 -77 4 -12 348 -109 361 -101 4 2
7 49 7 103 0 54 -3 101 -7 103 -5 2 -62 -10 -128 -28z"/>
<path d="M1996 1282 c-9 -8 -7 -200 2 -205 4 -2 86 17 182 43 191 51 210 65
125 87 -27 7 -107 28 -177 47 -70 18 -129 31 -132 28z"/>
<path d="M446 539 c-88 -155 -100 -187 -68 -174 32 12 312 177 312 184 0 11
-135 141 -147 141 -6 0 -49 -68 -97 -151z"/>
<path d="M1655 620 c-44 -44 -66 -73 -60 -79 15 -14 307 -181 317 -181 4 0 8
5 8 12 0 20 -173 318 -185 318 -6 0 -42 -31 -80 -70z"/>
<path d="M1074 387 c-3 -8 16 -89 41 -181 25 -92 45 -169 45 -172 0 -2 7 -4
15 -4 8 0 15 2 15 4 0 3 20 80 45 172 25 92 44 173 41 181 -8 19 -194 19 -202
0z"/>
</g>
</svg>
